<svg width="31" height="31" viewBox="0 0 31 31" fill="none" xmlns="http://www.w3.org/2000/svg">
<path d="M21.8042 0C24.0284 0 26.1614 0.883546 27.7341 2.45627C29.3069 4.02899 30.1904 6.16206 30.1904 8.38623V21.8042C30.1904 24.0284 29.3069 26.1614 27.7341 27.7341C26.1614 29.3069 24.0284 30.1904 21.8042 30.1904H8.38623C6.16206 30.1904 4.02899 29.3069 2.45627 27.7341C0.883546 26.1614 0 24.0284 0 21.8042V8.38623C0 6.16206 0.883546 4.02899 2.45627 2.45627C4.02899 0.883546 6.16206 0 8.38623 0H21.8042ZM15.0952 8.38623C13.3159 8.38623 11.6094 9.09306 10.3512 10.3512C9.09306 11.6094 8.38623 13.3159 8.38623 15.0952C8.38623 16.8745 9.09306 18.581 10.3512 19.8392C11.6094 21.0974 13.3159 21.8042 15.0952 21.8042C16.8745 21.8042 18.581 21.0974 19.8392 19.8392C21.0974 18.581 21.8042 16.8745 21.8042 15.0952C21.8042 13.3159 21.0974 11.6094 19.8392 10.3512C18.581 9.09306 16.8745 8.38623 15.0952 8.38623ZM15.0952 11.7407C15.9849 11.7407 16.8381 12.0941 17.4672 12.7232C18.0963 13.3523 18.4497 14.2055 18.4497 15.0952C18.4497 15.9849 18.0963 16.8381 17.4672 17.4672C16.8381 18.0963 15.9849 18.4497 15.0952 18.4497C14.2055 18.4497 13.3523 18.0963 12.7232 17.4672C12.0941 16.8381 11.7407 15.9849 11.7407 15.0952C11.7407 14.2055 12.0941 13.3523 12.7232 12.7232C13.3523 12.0941 14.2055 11.7407 15.0952 11.7407ZM22.6428 5.87036C22.198 5.87036 21.7714 6.04707 21.4568 6.36161C21.1423 6.67616 20.9656 7.10277 20.9656 7.5476C20.9656 7.99244 21.1423 8.41905 21.4568 8.7336C21.7714 9.04814 22.198 9.22485 22.6428 9.22485C23.0876 9.22485 23.5143 9.04814 23.8288 8.7336C24.1433 8.41905 24.3201 7.99244 24.3201 7.5476C24.3201 7.10277 24.1433 6.67616 23.8288 6.36161C23.5143 6.04707 23.0876 5.87036 22.6428 5.87036Z" fill="#123524"/>
</svg>
