<svg width="31" height="31" viewBox="0 0 31 31" fill="none" xmlns="http://www.w3.org/2000/svg">
<path fill-rule="evenodd" clip-rule="evenodd" d="M25.1587 0C26.4932 0 27.773 0.530128 28.7167 1.47376C29.6603 2.4174 30.1904 3.69724 30.1904 5.03174V25.1587C30.1904 26.4932 29.6603 27.773 28.7167 28.7167C27.773 29.6603 26.4932 30.1904 25.1587 30.1904H5.03174C3.69724 30.1904 2.4174 29.6603 1.47376 28.7167C0.530128 27.773 0 26.4932 0 25.1587V5.03174C0 3.69724 0.530128 2.4174 1.47376 1.47376C2.4174 0.530128 3.69724 0 5.03174 0H25.1587ZM8.38623 11.7407C7.94139 11.7407 7.51478 11.9174 7.20024 12.232C6.88569 12.5465 6.70898 12.9731 6.70898 13.418V21.8042C6.70898 22.249 6.88569 22.6756 7.20024 22.9902C7.51478 23.3047 7.94139 23.4814 8.38623 23.4814C8.83106 23.4814 9.25767 23.3047 9.57222 22.9902C9.88676 22.6756 10.0635 22.249 10.0635 21.8042V13.418C10.0635 12.9731 9.88676 12.5465 9.57222 12.232C9.25767 11.9174 8.83106 11.7407 8.38623 11.7407ZM13.418 10.0635C12.9731 10.0635 12.5465 10.2402 12.232 10.5547C11.9174 10.8693 11.7407 11.2959 11.7407 11.7407V21.8042C11.7407 22.249 11.9174 22.6756 12.232 22.9902C12.5465 23.3047 12.9731 23.4814 13.418 23.4814C13.8628 23.4814 14.2894 23.3047 14.604 22.9902C14.9185 22.6756 15.0952 22.249 15.0952 21.8042V15.6655C15.6068 15.0885 16.4705 14.4109 17.4316 14C17.9901 13.7618 18.8304 13.6645 19.4141 13.849C19.6077 13.8981 19.7802 14.0088 19.9055 14.1643C19.9928 14.2817 20.1269 14.5434 20.1269 15.0952V21.8042C20.1269 22.249 20.3037 22.6756 20.6182 22.9902C20.9327 23.3047 21.3594 23.4814 21.8042 23.4814C22.249 23.4814 22.6756 23.3047 22.9902 22.9902C23.3047 22.6756 23.4814 22.249 23.4814 21.8042V15.0952C23.4814 13.9715 23.1963 12.9718 22.6026 12.1701C22.0562 11.4431 21.2916 10.91 20.4205 10.6488C18.9076 10.1742 17.232 10.4375 16.1133 10.9172C15.7551 11.0712 15.4062 11.246 15.0684 11.4405C14.9981 11.054 14.7943 10.7045 14.4927 10.4529C14.1911 10.2012 13.8108 10.0634 13.418 10.0635ZM8.38623 6.70898C7.94139 6.70898 7.51478 6.88569 7.20024 7.20024C6.88569 7.51478 6.70898 7.94139 6.70898 8.38623C6.70898 8.83106 6.88569 9.25767 7.20024 9.57222C7.51478 9.88676 7.94139 10.0635 8.38623 10.0635C8.83106 10.0635 9.25767 9.88676 9.57222 9.57222C9.88676 9.25767 10.0635 8.83106 10.0635 8.38623C10.0635 7.94139 9.88676 7.51478 9.57222 7.20024C9.25767 6.88569 8.83106 6.70898 8.38623 6.70898Z" fill="#123524"/>
</svg>
