<svg width="31" height="31" viewBox="0 0 31 31" fill="none" xmlns="http://www.w3.org/2000/svg">
<path fill-rule="evenodd" clip-rule="evenodd" d="M21.2878 30.19C23.6488 30.19 25.9131 29.2521 27.5826 27.5826C29.2521 25.9131 30.19 23.6488 30.19 21.2878V8.90218C30.19 6.54117 29.2521 4.27687 27.5826 2.60739C25.9131 0.937905 23.6488 0 21.2878 0H8.90218C6.54117 0 4.27687 0.937905 2.60739 2.60739C0.937905 4.27687 0 6.54117 0 8.90218V21.2878C0 23.6488 0.937905 25.9131 2.60739 27.5826C4.27687 29.2521 6.54117 30.19 8.90218 30.19H21.2878ZM17.744 5.43884C17.6564 5.17788 17.4789 4.95653 17.2432 4.81429C17.0075 4.67204 16.729 4.61815 16.4573 4.66223C16.1855 4.7063 15.9383 4.84548 15.7597 5.05494C15.5811 5.26439 15.4827 5.53049 15.4821 5.80577V19.7396C15.4821 20.4286 15.2778 21.1021 14.895 21.6749C14.5122 22.2478 13.9682 22.6943 13.3317 22.9579C12.6951 23.2216 11.9947 23.2906 11.319 23.1561C10.6433 23.0217 10.0226 22.69 9.53541 22.2028C9.04824 21.7156 8.71647 21.0949 8.58206 20.4192C8.44765 19.7435 8.51664 19.0431 8.78029 18.4066C9.04395 17.77 9.49043 17.226 10.0633 16.8432C10.6361 16.4605 11.3096 16.2562 11.9986 16.2562C12.3065 16.2562 12.6019 16.1338 12.8196 15.9161C13.0374 15.6983 13.1597 15.403 13.1597 15.095C13.1597 14.787 13.0374 14.4917 12.8196 14.2739C12.6019 14.0562 12.3065 13.9338 11.9986 13.9338C10.8503 13.9338 9.72783 14.2743 8.77308 14.9123C7.81832 15.5502 7.07418 16.457 6.63476 17.5178C6.19533 18.5787 6.08036 19.7461 6.30438 20.8723C6.52839 21.9985 7.08134 23.033 7.89329 23.8449C8.70524 24.6569 9.73973 25.2098 10.8659 25.4338C11.9921 25.6578 13.1595 25.5429 14.2204 25.1034C15.2812 24.664 16.188 23.9199 16.8259 22.9651C17.4639 22.0104 17.8044 20.8879 17.8044 19.7396V9.61126C18.9918 10.7136 20.6639 11.6115 22.836 11.6115C23.144 11.6115 23.4393 11.4892 23.6571 11.2714C23.8748 11.0537 23.9972 10.7583 23.9972 10.4504C23.9972 10.1424 23.8748 9.84708 23.6571 9.62933C23.4393 9.41157 23.144 9.28923 22.836 9.28923C21.3312 9.28923 20.187 8.66995 19.3386 7.86643C18.4716 7.04278 17.9483 6.05039 17.744 5.43884Z" fill="#123524"/>
</svg>
